<?xml version="1.0" encoding="UTF-8" standalone="no"?>
<svg xmlns:rdf="http://www.w3.org/1999/02/22-rdf-syntax-ns#" xmlns="http://www.w3.org/2000/svg" version="1.1" xmlns:cc="http://creativecommons.org/ns#" xmlns:dc="http://purl.org/dc/elements/1.1/" viewBox="0 0 32 32">
	<g display="none">
		<path style="color-rendering:auto;text-decoration-color:#000000;color:#000000;isolation:auto;mix-blend-mode:normal;shape-rendering:auto;solid-color:#000000;block-progression:tb;text-decoration-line:none;text-decoration-style:solid;image-rendering:auto;white-space:normal;text-indent:0;text-transform:none" d="m12 0c-0.82839 0-1.5 0.6716-1.5 1.5v4.9941h3v-3.4941h4v3.4941h3v-4.9941c0-0.8284-0.67161-1.5-1.5-1.5zm10 1.3379v2.0059c4.2906 0.5157 6.9982 1.5379 7 2.6562 0.0027 1.6569-5.8203 3-13 3-7.1798 0-13.003-1.3431-13-3 0.00164-1.0257 2.2957-1.9694 6-2.5176v-2.0195c-0.9415 0.1329-1.8416 0.2839-2.6427 0.4687-1.2849 0.2965-2.3662 0.6409-3.293 1.1465-0.4634 0.2529-0.8996 0.5423-1.2969 0.9903-0.3325 0.375-0.6258 0.9271-0.7265 1.5586-0.0198 0.1241-0.04105 0.2479-0.04105 0.373v2c0 0.1208 0.022162 0.24 0.041016 0.3613 0.098852 0.6364 0.39202 1.1931 0.72656 1.5703 0.39721 0.448 0.83349 0.7393 1.2969 0.9922 0.1279 0.07 0.26646 0.1294 0.40039 0.1934l1.3788 15.067c0.2033 2.218 1.9671 3.592 3.9395 4.468 1.9719 0.876 4.4489 1.348 7.2169 1.348 2.7678 0 5.2442-0.4718 7.2168-1.3477s3.7362-2.2506 3.9395-4.4687l1.3809-15.066c0.13338-0.064 0.27104-0.1238 0.39844-0.1934 0.46339-0.2529 0.89967-0.5442 1.2969-0.9922 0.33455-0.3772 0.62748-0.9339 0.72656-1.5703 0.01887-0.1211 0.04034-0.2407 0.04102-0.3613 0.000684-0.1212-0.000005-1.3333 0-2 0.000001-0.1281-0.02221-0.2537-0.04297-0.3809-0.103-0.6288-0.394-1.1781-0.725-1.5515-0.397-0.448-0.833-0.7374-1.297-0.9903-0.926-0.5056-2.008-0.85-3.293-1.1465-1.077-0.2486-2.319-0.4407-3.642-0.5937zm-15.432 10.773c0.63354 0.1408 1.3083 0.2659 2.0273 0.375l0.90234 14.453c0.10764 1.3531-1.9367 1.4791-1.9961 0.123zm18.863 0-0.93359 14.949c-0.05938 1.3562-2.1037 1.2301-1.9961-0.123l0.90234-14.451c0.719-0.1091 1.3938-0.2342 2.0273-0.375zm-13.256 0.7481c0.65246 0.044 1.3169 0.078 2.0039 0.1l0.32031 15.352c0.02755 1.3323-1.9703 1.3753-2 0.043zm7.6484 0-0.32422 15.494c-0.0297 1.3323-2.0276 1.2893-2-0.043l0.321-15.351c0.68705-0.021 1.3514-0.055 2.0039-0.1z" fill-rule="evenodd" display="inline"/>
	</g>
	<g display="none">
		<path d="m22.274-0.063164c-1.0299-5e-8 -2.0594 0.3907-2.8394 1.1706l-15.06 15.06c-0.12042 0.12042-0.20813 0.2696-0.25492 0.43335l-4.0162 14.056c-0.2164 0.75737 0.48386 1.4576 1.2413 1.2412 0.56262-0.16071 9.3705-2.6774 14.056-4.0159 0.16375-0.04678 0.31264-0.13479 0.43336-0.25491 0.01672-0.01664 15.06-15.059 15.06-15.059 1.5599-1.5599 1.5599-4.1188 0-5.6787l-5.781-5.7805c-0.78-0.77997-1.809-1.1707-2.839-1.1707zm-3.134 4.3041 1.593 1.5923-12.636 12.636-1.5927-1.592zm3.012 3.0119 2.597 2.5962-12.636 12.636-2.5967-2.596zm4.0159 4.0159 1.5923 1.5922l-12.636 12.636-1.592-1.593zm-20.588 7.5238 7.6279 7.6278-6.1965 1.7707-3.2022-3.2021z"/>
	</g>
	<g display="none">
		<path d="m25.068-0.039062a3.0003 3.0003 0 0 0 -2.902 2.0586l-7.152 20.664-5.6136-7.485a3.0008 3.0008 0 1 0 -4.8008 3.6016l9 12a3.0003 3.0003 0 0 0 5.2344 -0.82031l9-26a3.0003 3.0003 0 0 0 -2.7656 -4.0195z"/>
	</g>
	<path d="m4.9688 1.9688a3.0003 3.0003 0 0 0 -2.0899 5.1523l8.8791 8.8789-8.8791 8.879a3.0003 3.0003 0 1 0 4.2422 4.2422l8.8789-8.879 8.8789 8.8789a3.0003 3.0003 0 1 0 4.2422 -4.2422l-8.879-8.879 8.879-8.8789a3.0003 3.0003 0 0 0 -2.1797 -5.1504 3.0003 3.0003 0 0 0 -2.0625 0.9082l-8.879 8.8791-8.8789-8.8791a3.0003 3.0003 0 0 0 -2.1523 -0.9101z"/>
</svg>
