<?xml version="1.0" encoding="UTF-8" standalone="no"?>
<!-- Created with Inkscape (http://www.inkscape.org/) -->

<svg
   xmlns:dc="http://purl.org/dc/elements/1.1/"
   xmlns:cc="http://creativecommons.org/ns#"
   xmlns:rdf="http://www.w3.org/1999/02/22-rdf-syntax-ns#"
   xmlns:svg="http://www.w3.org/2000/svg"
   xmlns="http://www.w3.org/2000/svg"
   xmlns:sodipodi="http://sodipodi.sourceforge.net/DTD/sodipodi-0.dtd"
   xmlns:inkscape="http://www.inkscape.org/namespaces/inkscape"
   width="128"
   height="128"
   viewBox="0 0 128 128"
   id="svg2"
   version="1.1"
   inkscape:version="0.91 r13725"
   sodipodi:docname="logoGValue.svg"
   inkscape:export-filename="C:\Users\bo_ba\Desktop\logoGValue.png"
   inkscape:export-xdpi="90"
   inkscape:export-ydpi="90">
  <defs
     id="defs4" />
  <sodipodi:namedview
     id="base"
     pagecolor="#ffffff"
     bordercolor="#666666"
     borderopacity="1.0"
     inkscape:pageopacity="0.0"
     inkscape:pageshadow="2"
     inkscape:zoom="0.5"
     inkscape:cx="55.999999"
     inkscape:cy="63.999999"
     inkscape:document-units="px"
     inkscape:current-layer="layer1"
     showgrid="false"
     inkscape:object-nodes="true"
     inkscape:window-width="1368"
     inkscape:window-height="849"
     inkscape:window-x="-8"
     inkscape:window-y="-8"
     inkscape:window-maximized="1"
     inkscape:snap-smooth-nodes="true"
     units="px" />
  <metadata
     id="metadata7">
    <rdf:RDF>
      <cc:Work
         rdf:about="">
        <dc:format>image/svg+xml</dc:format>
        <dc:type
           rdf:resource="http://purl.org/dc/dcmitype/StillImage" />
        <dc:title></dc:title>
      </cc:Work>
    </rdf:RDF>
  </metadata>
  <g
     inkscape:label="Calque 1"
     inkscape:groupmode="layer"
     id="layer1"
     style="display:inline">
    <path
       id="path4488"
       d="M 52.435854,3.0982043 C 48.978792,5.0941495 46.033028,7.9913666 43.970318,11.564049 L 8.12864,73.643336 c -2.7203351,4.711705 -2.7207098,10.550297 -1.948e-4,15.26237 0.1258152,0.217918 0.1899778,0.328552 0.1923324,0.33214 L 26.29397,120.36833 c 2.720096,4.71134 7.775764,7.6317 13.217519,7.63167 l 48.977356,-1.8e-4 c 5.44067,-1e-5 10.496641,-2.91893 13.217305,-7.63045 0.12362,-0.21403 0.0352,-0.0616 0.0177,-0.0319 L 119.8713,88.905351 c 2.72028,-4.711644 2.72092,-10.550175 2e-4,-15.26237 L 107.62657,52.435131 C 103.50119,45.289709 95.848379,40.871165 87.597403,40.871212 c -2.770835,-8e-6 -5.458829,0.537456 -7.983833,1.46994 l 4.415987,-7.648669 C 88.155112,27.54682 88.155267,18.709845 84.02967,11.564099 79.90406,4.4183352 72.250934,-5.1035612e-6 63.999843,2.539831e-6 59.874812,-1.200727e-5 55.892918,1.1022648 52.435856,3.0982086 Z"
       style="color:#000000;font-style:normal;font-variant:normal;font-weight:normal;font-stretch:normal;font-size:medium;line-height:normal;font-family:sans-serif;text-indent:0;text-align:start;text-decoration:none;text-decoration-line:none;text-decoration-style:solid;text-decoration-color:#000000;letter-spacing:normal;word-spacing:normal;text-transform:none;direction:ltr;block-progression:tb;writing-mode:lr-tb;baseline-shift:baseline;text-anchor:start;white-space:normal;clip-rule:nonzero;display:inline;overflow:visible;visibility:visible;opacity:1;isolation:auto;mix-blend-mode:normal;color-interpolation:sRGB;color-interpolation-filters:linearRGB;solid-color:#000000;solid-opacity:1;fill:#000000;fill-opacity:1;fill-rule:evenodd;stroke:none;stroke-width:60;stroke-linecap:round;stroke-linejoin:round;stroke-miterlimit:4;stroke-dasharray:none;stroke-dashoffset:0;stroke-opacity:1;color-rendering:auto;image-rendering:auto;shape-rendering:auto;text-rendering:auto;enable-background:accumulate"
       inkscape:connector-curvature="0"
       inkscape:export-xdpi="90"
       inkscape:export-ydpi="90" />
    <path
       style="color:#000000;font-style:normal;font-variant:normal;font-weight:normal;font-stretch:normal;font-size:medium;line-height:normal;font-family:sans-serif;text-indent:0;text-align:start;text-decoration:none;text-decoration-line:none;text-decoration-style:solid;text-decoration-color:#000000;letter-spacing:normal;word-spacing:normal;text-transform:none;direction:ltr;block-progression:tb;writing-mode:lr-tb;baseline-shift:baseline;text-anchor:start;white-space:normal;clip-rule:nonzero;display:inline;overflow:visible;visibility:visible;opacity:1;isolation:auto;mix-blend-mode:normal;color-interpolation:sRGB;color-interpolation-filters:linearRGB;solid-color:#000000;solid-opacity:1;fill:#ffff00;fill-opacity:1;fill-rule:evenodd;stroke:none;stroke-width:30;stroke-linecap:round;stroke-linejoin:round;stroke-miterlimit:4;stroke-dasharray:none;stroke-dashoffset:0;stroke-opacity:1;color-rendering:auto;image-rendering:auto;shape-rendering:auto;text-rendering:auto;enable-background:accumulate"
       d="m 57.983652,12.706638 c 1.799629,-1.03902 3.863577,-1.611826 6.016309,-1.611819 4.304936,-5e-6 8.268669,2.288415 10.421117,6.016566 2.152431,3.728122 2.152409,8.305054 -6.2e-5,12.033233 l -32.502699,56.296348 -20.571702,7.4e-4 -4.93e-4,2.46e-4 c -1.494441,-1.35e-4 -2.861509,-0.789787 -3.608808,-2.084146 -0.747356,-1.29446 -0.74709,-2.872155 4.93e-4,-4.166798 l -2.47e-4,-4.93e-4 35.841676,-62.079291 2.47e-4,4.19e-4 c 1.076283,-1.864159 2.604579,-3.366005 4.404204,-4.405024 z"
       id="path4409"
       inkscape:connector-curvature="0"
       sodipodi:nodetypes="cssscccscccccc"
       inkscape:export-xdpi="90"
       inkscape:export-ydpi="90" />
    <path
       style="color:#000000;font-style:normal;font-variant:normal;font-weight:normal;font-stretch:normal;font-size:medium;line-height:normal;font-family:sans-serif;text-indent:0;text-align:start;text-decoration:none;text-decoration-line:none;text-decoration-style:solid;text-decoration-color:#000000;letter-spacing:normal;word-spacing:normal;text-transform:none;direction:ltr;block-progression:tb;writing-mode:lr-tb;baseline-shift:baseline;text-anchor:start;white-space:normal;clip-rule:nonzero;display:inline;overflow:visible;visibility:visible;opacity:1;isolation:auto;mix-blend-mode:normal;color-interpolation:sRGB;color-interpolation-filters:linearRGB;solid-color:#000000;solid-opacity:1;fill:#808000;fill-opacity:1;fill-rule:evenodd;stroke:none;stroke-width:30;stroke-linecap:round;stroke-linejoin:round;stroke-miterlimit:4;stroke-dasharray:none;stroke-dashoffset:0;stroke-opacity:1;color-rendering:auto;image-rendering:auto;shape-rendering:auto;text-rendering:auto;enable-background:accumulate"
       d="m 23.211092,92.83848 58.600424,-4.93e-4 10.286405,17.815593 c 0.747048,1.29426 0.747142,2.87289 -1.43e-4,4.16721 -0.747356,1.29447 -2.114157,2.08373 -3.609126,2.08373 l -48.97735,1.8e-4 c -1.494646,10e-6 -2.861097,-0.78907 -3.608569,-2.08373 L 23.211099,92.838475 Z"
       id="path4389"
       inkscape:connector-curvature="0"
       sodipodi:nodetypes="cccsssscc"
       inkscape:export-xdpi="90"
       inkscape:export-ydpi="90" />
    <path
       style="color:#000000;font-style:normal;font-variant:normal;font-weight:normal;font-stretch:normal;font-size:medium;line-height:normal;font-family:sans-serif;text-indent:0;text-align:start;text-decoration:none;text-decoration-line:none;text-decoration-style:solid;text-decoration-color:#000000;letter-spacing:normal;word-spacing:normal;text-transform:none;direction:ltr;block-progression:tb;writing-mode:lr-tb;baseline-shift:baseline;text-anchor:start;white-space:normal;clip-rule:nonzero;display:inline;overflow:visible;visibility:visible;opacity:1;isolation:auto;mix-blend-mode:normal;color-interpolation:sRGB;color-interpolation-filters:linearRGB;solid-color:#000000;solid-opacity:1;fill:#ffff00;fill-opacity:1;fill-rule:evenodd;stroke:none;stroke-width:30;stroke-linecap:round;stroke-linejoin:round;stroke-miterlimit:4;stroke-dasharray:none;stroke-dashoffset:0;stroke-opacity:1;color-rendering:auto;image-rendering:auto;shape-rendering:auto;text-rendering:auto;enable-background:accumulate"
       d="m 81.579415,53.576662 c 1.798099,-1.038113 3.865461,-1.609982 6.017929,-1.609974 4.304961,-2.5e-5 8.268393,2.287911 10.420875,6.016148 l 12.244931,21.207849 c 0.74731,1.294313 0.74734,2.872548 -1.4e-4,4.167217 L 97.571458,105.34041 77.176291,70.01593 c -2.152473,-3.728191 -2.152788,-8.304869 -2.46e-4,-12.032993 1.076226,-1.864073 2.605386,-3.368164 4.403481,-4.406275 z"
       id="path4414"
       inkscape:connector-curvature="0"
       sodipodi:nodetypes="sscssccss"
       inkscape:export-xdpi="90"
       inkscape:export-ydpi="90" />
  </g>
  <g
     style="display:none"
     id="g4575"
     inkscape:groupmode="layer"
     inkscape:label="Copie de Calque 3">
    <path
       inkscape:connector-curvature="0"
       style="color:#000000;font-style:normal;font-variant:normal;font-weight:normal;font-stretch:normal;font-size:medium;line-height:normal;font-family:sans-serif;text-indent:0;text-align:start;text-decoration:none;text-decoration-line:none;text-decoration-style:solid;text-decoration-color:#000000;letter-spacing:normal;word-spacing:normal;text-transform:none;direction:ltr;block-progression:tb;writing-mode:lr-tb;baseline-shift:baseline;text-anchor:start;white-space:normal;clip-rule:nonzero;display:inline;overflow:visible;visibility:visible;opacity:1;isolation:auto;mix-blend-mode:normal;color-interpolation:sRGB;color-interpolation-filters:linearRGB;solid-color:#000000;solid-opacity:1;fill:#000000;fill-opacity:1;fill-rule:evenodd;stroke:none;stroke-width:60;stroke-linecap:round;stroke-linejoin:round;stroke-miterlimit:4;stroke-dasharray:none;stroke-dashoffset:0;stroke-opacity:1;color-rendering:auto;image-rendering:auto;shape-rendering:auto;text-rendering:auto;enable-background:accumulate"
       d="M 52.435854,3.0982043 C 48.978792,5.0941495 46.033028,7.9913666 43.970318,11.564049 L 8.12864,73.643336 c -2.7203351,4.711705 -2.7207098,10.550297 -1.948e-4,15.26237 0.1258152,0.217918 0.1899778,0.328552 0.1923324,0.33214 L 26.29397,120.36833 c 2.720096,4.71134 7.775764,7.6317 13.217519,7.63167 l 48.977356,-1.8e-4 c 5.44067,-1e-5 10.496641,-2.91893 13.217305,-7.63045 0.12362,-0.21403 0.0352,-0.0616 0.0177,-0.0319 L 119.8713,88.905351 c 2.72028,-4.711644 2.72092,-10.550175 2e-4,-15.26237 L 107.62657,52.435131 C 103.50119,45.289709 95.848379,40.871165 87.597403,40.871212 c -2.770835,-8e-6 -5.458829,0.537456 -7.983833,1.46994 l 4.415987,-7.648669 C 88.155112,27.54682 88.155267,18.709845 84.02967,11.564099 79.90406,4.4183352 72.250934,-5.1035612e-6 63.999843,2.539831e-6 59.874812,-1.200727e-5 55.892918,1.1022648 52.435856,3.0982086 Z"
       id="path4577" />
    <path
       style="color:#000000;font-style:normal;font-variant:normal;font-weight:normal;font-stretch:normal;font-size:medium;line-height:normal;font-family:sans-serif;text-indent:0;text-align:start;text-decoration:none;text-decoration-line:none;text-decoration-style:solid;text-decoration-color:#000000;letter-spacing:normal;word-spacing:normal;text-transform:none;direction:ltr;block-progression:tb;writing-mode:lr-tb;baseline-shift:baseline;text-anchor:start;white-space:normal;clip-rule:nonzero;display:inline;overflow:visible;visibility:visible;opacity:1;isolation:auto;mix-blend-mode:normal;color-interpolation:sRGB;color-interpolation-filters:linearRGB;solid-color:#000000;solid-opacity:1;fill:#ffff00;fill-opacity:1;fill-rule:evenodd;stroke:none;stroke-width:30;stroke-linecap:round;stroke-linejoin:round;stroke-miterlimit:4;stroke-dasharray:none;stroke-dashoffset:0;stroke-opacity:1;color-rendering:auto;image-rendering:auto;shape-rendering:auto;text-rendering:auto;enable-background:accumulate"
       d="m 64,11.095703 c -2.152732,-7e-6 -4.215996,0.572308 -6.015625,1.611328 -1.799625,1.039019 -3.328014,2.540138 -4.404297,4.404297 L 17.738281,79.191406 c -0.74731,1.294313 -0.74748,2.871347 0,4.166016 L 30.429688,105.33984 74.421875,29.144531 c 2.152471,-3.728179 2.152431,-8.305081 0,-12.033203 C 72.269427,13.383177 68.304936,11.095698 64,11.095703 Z"
       id="path4579"
       inkscape:connector-curvature="0" />
    <path
       style="color:#000000;font-style:normal;font-variant:normal;font-weight:normal;font-stretch:normal;font-size:medium;line-height:normal;font-family:sans-serif;text-indent:0;text-align:start;text-decoration:none;text-decoration-line:none;text-decoration-style:solid;text-decoration-color:#000000;letter-spacing:normal;word-spacing:normal;text-transform:none;direction:ltr;block-progression:tb;writing-mode:lr-tb;baseline-shift:baseline;text-anchor:start;white-space:normal;clip-rule:nonzero;display:inline;overflow:visible;visibility:visible;opacity:1;isolation:auto;mix-blend-mode:normal;color-interpolation:sRGB;color-interpolation-filters:linearRGB;solid-color:#000000;solid-opacity:1;fill:#ffff00;fill-opacity:1;fill-rule:evenodd;stroke:none;stroke-width:30;stroke-linecap:round;stroke-linejoin:round;stroke-miterlimit:4;stroke-dasharray:none;stroke-dashoffset:0;stroke-opacity:1;color-rendering:auto;image-rendering:auto;shape-rendering:auto;text-rendering:auto;enable-background:accumulate"
       d="m 87.597656,51.966797 c -2.152468,-8e-6 -4.219479,0.571262 -6.017578,1.609375 -1.798095,1.038111 -3.328071,2.542177 -4.404297,4.40625 -2.152542,3.728124 -2.152473,8.305012 0,12.033203 l 8.90625,15.425781 20.572269,0 c 1.49444,-1.35e-4 2.86207,-0.789625 3.60937,-2.083984 0.74735,-1.29446 0.74759,-2.871373 0,-4.166016 L 98.017578,57.982422 c -2.152482,-3.728237 -6.114961,-6.01565 -10.419922,-6.015625 z"
       id="path4583"
       inkscape:connector-curvature="0" />
    <g
       id="g4592"
       transform="matrix(-1,0,0,1,128.00117,0)">
      <path
         sodipodi:nodetypes="cccsssscc"
         inkscape:connector-curvature="0"
         id="path4588"
         d="m 23.211092,92.83848 58.600424,-4.93e-4 10.286405,17.815593 c 0.747048,1.29426 0.747142,2.87289 -1.43e-4,4.16721 -0.747356,1.29447 -2.114157,2.08373 -3.609126,2.08373 l -48.97735,1.8e-4 c -1.494646,10e-6 -2.861097,-0.78907 -3.608569,-2.08373 L 23.211099,92.838475 Z"
         style="color:#000000;font-style:normal;font-variant:normal;font-weight:normal;font-stretch:normal;font-size:medium;line-height:normal;font-family:sans-serif;text-indent:0;text-align:start;text-decoration:none;text-decoration-line:none;text-decoration-style:solid;text-decoration-color:#000000;letter-spacing:normal;word-spacing:normal;text-transform:none;direction:ltr;block-progression:tb;writing-mode:lr-tb;baseline-shift:baseline;text-anchor:start;white-space:normal;clip-rule:nonzero;display:inline;overflow:visible;visibility:visible;opacity:1;isolation:auto;mix-blend-mode:normal;color-interpolation:sRGB;color-interpolation-filters:linearRGB;solid-color:#000000;solid-opacity:1;fill:#808000;fill-opacity:1;fill-rule:evenodd;stroke:none;stroke-width:30;stroke-linecap:round;stroke-linejoin:round;stroke-miterlimit:4;stroke-dasharray:none;stroke-dashoffset:0;stroke-opacity:1;color-rendering:auto;image-rendering:auto;shape-rendering:auto;text-rendering:auto;enable-background:accumulate" />
    </g>
  </g>
  <g
     style="display:none"
     id="g4560"
     inkscape:groupmode="layer"
     inkscape:label="Copie de Calque 2">
    <path
       inkscape:connector-curvature="0"
       style="color:#000000;font-style:normal;font-variant:normal;font-weight:normal;font-stretch:normal;font-size:medium;line-height:normal;font-family:sans-serif;text-indent:0;text-align:start;text-decoration:none;text-decoration-line:none;text-decoration-style:solid;text-decoration-color:#000000;letter-spacing:normal;word-spacing:normal;text-transform:none;direction:ltr;block-progression:tb;writing-mode:lr-tb;baseline-shift:baseline;text-anchor:start;white-space:normal;clip-rule:nonzero;display:inline;overflow:visible;visibility:visible;opacity:1;isolation:auto;mix-blend-mode:normal;color-interpolation:sRGB;color-interpolation-filters:linearRGB;solid-color:#000000;solid-opacity:1;fill:#000000;fill-opacity:1;fill-rule:evenodd;stroke:none;stroke-width:60;stroke-linecap:round;stroke-linejoin:round;stroke-miterlimit:4;stroke-dasharray:none;stroke-dashoffset:0;stroke-opacity:1;color-rendering:auto;image-rendering:auto;shape-rendering:auto;text-rendering:auto;enable-background:accumulate"
       d="M 52.435854,3.0982043 C 48.978792,5.0941495 46.033028,7.9913666 43.970318,11.564049 L 8.12864,73.643336 c -2.7203351,4.711705 -2.7207098,10.550297 -1.948e-4,15.26237 0.1258152,0.217918 0.1899778,0.328552 0.1923324,0.33214 L 26.29397,120.36833 c 2.720096,4.71134 7.775764,7.6317 13.217519,7.63167 l 48.977356,-1.8e-4 c 5.44067,-1e-5 10.496641,-2.91893 13.217305,-7.63045 0.12362,-0.21403 0.0352,-0.0616 0.0177,-0.0319 L 119.8713,88.905351 c 2.72028,-4.711644 2.72092,-10.550175 2e-4,-15.26237 L 107.62657,52.435131 C 103.50119,45.289709 95.848379,40.871165 87.597403,40.871212 c -2.770835,-8e-6 -5.458829,0.537456 -7.983833,1.46994 l 4.415987,-7.648669 C 88.155112,27.54682 88.155267,18.709845 84.02967,11.564099 79.90406,4.4183352 72.250934,-5.1035612e-6 63.999843,2.539831e-6 59.874812,-1.200727e-5 55.892918,1.1022648 52.435856,3.0982086 Z"
       id="path4562" />
    <path
       sodipodi:nodetypes="sscssccss"
       inkscape:connector-curvature="0"
       id="path4568"
       d="m 81.579415,53.576662 c 1.798099,-1.038113 3.865461,-1.609982 6.017929,-1.609974 4.304961,-2.5e-5 8.268393,2.287911 10.420875,6.016148 l 12.244931,21.207849 c 0.74731,1.294313 0.74734,2.872548 -1.4e-4,4.167217 L 97.571458,105.34041 77.176291,70.01593 c -2.152473,-3.728191 -2.152788,-8.304869 -2.46e-4,-12.032993 1.076226,-1.864073 2.605386,-3.368164 4.403481,-4.406275 z"
       style="color:#000000;font-style:normal;font-variant:normal;font-weight:normal;font-stretch:normal;font-size:medium;line-height:normal;font-family:sans-serif;text-indent:0;text-align:start;text-decoration:none;text-decoration-line:none;text-decoration-style:solid;text-decoration-color:#000000;letter-spacing:normal;word-spacing:normal;text-transform:none;direction:ltr;block-progression:tb;writing-mode:lr-tb;baseline-shift:baseline;text-anchor:start;white-space:normal;clip-rule:nonzero;display:inline;overflow:visible;visibility:visible;opacity:1;isolation:auto;mix-blend-mode:normal;color-interpolation:sRGB;color-interpolation-filters:linearRGB;solid-color:#000000;solid-opacity:1;fill:#ffff00;fill-opacity:1;fill-rule:evenodd;stroke:none;stroke-width:30;stroke-linecap:round;stroke-linejoin:round;stroke-miterlimit:4;stroke-dasharray:none;stroke-dashoffset:0;stroke-opacity:1;color-rendering:auto;image-rendering:auto;shape-rendering:auto;text-rendering:auto;enable-background:accumulate" />
    <path
       style="color:#000000;font-style:normal;font-variant:normal;font-weight:normal;font-stretch:normal;font-size:medium;line-height:normal;font-family:sans-serif;text-indent:0;text-align:start;text-decoration:none;text-decoration-line:none;text-decoration-style:solid;text-decoration-color:#000000;letter-spacing:normal;word-spacing:normal;text-transform:none;direction:ltr;block-progression:tb;writing-mode:lr-tb;baseline-shift:baseline;text-anchor:start;white-space:normal;clip-rule:nonzero;display:inline;overflow:visible;visibility:visible;opacity:1;isolation:auto;mix-blend-mode:normal;color-interpolation:sRGB;color-interpolation-filters:linearRGB;solid-color:#000000;solid-opacity:1;fill:#808000;fill-opacity:1;fill-rule:evenodd;stroke:none;stroke-width:30;stroke-linecap:round;stroke-linejoin:round;stroke-miterlimit:4;stroke-dasharray:none;stroke-dashoffset:0;stroke-opacity:1;color-rendering:auto;image-rendering:auto;shape-rendering:auto;text-rendering:auto;enable-background:accumulate"
       d="m 39.511302,116.90434 c -1.494969,0 -2.86177,-0.78926 -3.609126,-2.08373 -0.747285,-1.29432 -0.747191,-2.87295 -1.43e-4,-4.16721 l 10.286405,-17.815592 35.623078,1.79e-4 10.286405,17.815593 c 0.747048,1.29426 0.747142,2.87289 -1.43e-4,4.16721 -0.747356,1.29447 -2.114157,2.08373 -3.609126,2.08373"
       id="path4570"
       inkscape:connector-curvature="0"
       sodipodi:nodetypes="csccccsc" />
    <path
       style="color:#000000;font-style:normal;font-variant:normal;font-weight:normal;font-stretch:normal;font-size:medium;line-height:normal;font-family:sans-serif;text-indent:0;text-align:start;text-decoration:none;text-decoration-line:none;text-decoration-style:solid;text-decoration-color:#000000;letter-spacing:normal;word-spacing:normal;text-transform:none;direction:ltr;block-progression:tb;writing-mode:lr-tb;baseline-shift:baseline;text-anchor:start;white-space:normal;clip-rule:nonzero;display:inline;overflow:visible;visibility:visible;opacity:1;isolation:auto;mix-blend-mode:normal;color-interpolation:sRGB;color-interpolation-filters:linearRGB;solid-color:#000000;solid-opacity:1;fill:#ffff00;fill-opacity:1;fill-rule:evenodd;stroke:none;stroke-width:30;stroke-linecap:round;stroke-linejoin:round;stroke-miterlimit:4;stroke-dasharray:none;stroke-dashoffset:0;stroke-opacity:1;color-rendering:auto;image-rendering:auto;shape-rendering:auto;text-rendering:auto;enable-background:accumulate"
       d="m 64,11.095703 c -2.152732,-7e-6 -4.215996,0.572308 -6.015625,1.611328 -1.799625,1.039019 -3.328014,2.540138 -4.404297,4.404297 L 17.738281,79.191406 c -0.74731,1.294313 -0.74748,2.871347 0,4.166016 L 30.429688,105.33984 74.421875,29.144531 c 2.152471,-3.728179 2.152431,-8.305081 0,-12.033203 C 72.269427,13.383177 68.304936,11.095698 64,11.095703 Z"
       id="path4572"
       inkscape:connector-curvature="0" />
  </g>
  <g
     style="display:none"
     id="g4544"
     inkscape:groupmode="layer"
     inkscape:label="Copie de Calque 1">
    <path
       inkscape:connector-curvature="0"
       style="color:#000000;font-style:normal;font-variant:normal;font-weight:normal;font-stretch:normal;font-size:medium;line-height:normal;font-family:sans-serif;text-indent:0;text-align:start;text-decoration:none;text-decoration-line:none;text-decoration-style:solid;text-decoration-color:#000000;letter-spacing:normal;word-spacing:normal;text-transform:none;direction:ltr;block-progression:tb;writing-mode:lr-tb;baseline-shift:baseline;text-anchor:start;white-space:normal;clip-rule:nonzero;display:inline;overflow:visible;visibility:visible;opacity:1;isolation:auto;mix-blend-mode:normal;color-interpolation:sRGB;color-interpolation-filters:linearRGB;solid-color:#000000;solid-opacity:1;fill:#000000;fill-opacity:1;fill-rule:evenodd;stroke:none;stroke-width:60;stroke-linecap:round;stroke-linejoin:round;stroke-miterlimit:4;stroke-dasharray:none;stroke-dashoffset:0;stroke-opacity:1;color-rendering:auto;image-rendering:auto;shape-rendering:auto;text-rendering:auto;enable-background:accumulate"
       d="M 52.435854,3.0982043 C 48.978792,5.0941495 46.033028,7.9913666 43.970318,11.564049 L 8.12864,73.643336 c -2.7203351,4.711705 -2.7207098,10.550297 -1.948e-4,15.26237 0.1258152,0.217918 0.1899778,0.328552 0.1923324,0.33214 L 26.29397,120.36833 c 2.720096,4.71134 7.775764,7.6317 13.217519,7.63167 l 48.977356,-1.8e-4 c 5.44067,-1e-5 10.496641,-2.91893 13.217305,-7.63045 0.12362,-0.21403 0.0352,-0.0616 0.0177,-0.0319 L 119.8713,88.905351 c 2.72028,-4.711644 2.72092,-10.550175 2e-4,-15.26237 L 107.62657,52.435131 C 103.50119,45.289709 95.848379,40.871165 87.597403,40.871212 c -2.770835,-8e-6 -5.458829,0.537456 -7.983833,1.46994 l 4.415987,-7.648669 C 88.155112,27.54682 88.155267,18.709845 84.02967,11.564099 79.90406,4.4183352 72.250934,-5.1035612e-6 63.999843,2.539831e-6 59.874812,-1.200727e-5 55.892918,1.1022648 52.435856,3.0982086 Z"
       id="path4546" />
    <path
       sodipodi:nodetypes="cssscccscccccc"
       inkscape:connector-curvature="0"
       id="path4548"
       d="m 57.983652,12.706638 c 1.799629,-1.03902 3.863577,-1.611826 6.016309,-1.611819 4.304936,-5e-6 8.268669,2.288415 10.421117,6.016566 2.152431,3.728122 2.152409,8.305054 -6.2e-5,12.033233 l -32.502699,56.296348 -20.571702,7.4e-4 -4.93e-4,2.46e-4 c -1.494441,-1.35e-4 -2.861509,-0.789787 -3.608808,-2.084146 -0.747356,-1.29446 -0.74709,-2.872155 4.93e-4,-4.166798 l -2.47e-4,-4.93e-4 35.841676,-62.079291 2.47e-4,4.19e-4 c 1.076283,-1.864159 2.604579,-3.366005 4.404204,-4.405024 z"
       style="color:#000000;font-style:normal;font-variant:normal;font-weight:normal;font-stretch:normal;font-size:medium;line-height:normal;font-family:sans-serif;text-indent:0;text-align:start;text-decoration:none;text-decoration-line:none;text-decoration-style:solid;text-decoration-color:#000000;letter-spacing:normal;word-spacing:normal;text-transform:none;direction:ltr;block-progression:tb;writing-mode:lr-tb;baseline-shift:baseline;text-anchor:start;white-space:normal;clip-rule:nonzero;display:inline;overflow:visible;visibility:visible;opacity:1;isolation:auto;mix-blend-mode:normal;color-interpolation:sRGB;color-interpolation-filters:linearRGB;solid-color:#000000;solid-opacity:1;fill:#ffff00;fill-opacity:1;fill-rule:evenodd;stroke:none;stroke-width:30;stroke-linecap:round;stroke-linejoin:round;stroke-miterlimit:4;stroke-dasharray:none;stroke-dashoffset:0;stroke-opacity:1;color-rendering:auto;image-rendering:auto;shape-rendering:auto;text-rendering:auto;enable-background:accumulate" />
    <path
       style="color:#000000;font-style:normal;font-variant:normal;font-weight:normal;font-stretch:normal;font-size:medium;line-height:normal;font-family:sans-serif;text-indent:0;text-align:start;text-decoration:none;text-decoration-line:none;text-decoration-style:solid;text-decoration-color:#000000;letter-spacing:normal;word-spacing:normal;text-transform:none;direction:ltr;block-progression:tb;writing-mode:lr-tb;baseline-shift:baseline;text-anchor:start;white-space:normal;clip-rule:nonzero;display:inline;overflow:visible;visibility:visible;opacity:1;isolation:auto;mix-blend-mode:normal;color-interpolation:sRGB;color-interpolation-filters:linearRGB;solid-color:#000000;solid-opacity:1;fill:#808000;fill-opacity:1;fill-rule:evenodd;stroke:none;stroke-width:30;stroke-linecap:round;stroke-linejoin:round;stroke-miterlimit:4;stroke-dasharray:none;stroke-dashoffset:0;stroke-opacity:1;color-rendering:auto;image-rendering:auto;shape-rendering:auto;text-rendering:auto;enable-background:accumulate"
       d="m 23.210938,92.837891 12.691406,21.982419 c 0.747472,1.29466 2.114729,2.084 3.609375,2.08399 l 48.976562,0 c 1.494646,10e-6 2.861903,-0.78933 3.609375,-2.08399 l 12.691404,-21.982419 -81.578122,0 z"
       id="path4554"
       inkscape:connector-curvature="0" />
    <path
       style="color:#000000;font-style:normal;font-variant:normal;font-weight:normal;font-stretch:normal;font-size:medium;line-height:normal;font-family:sans-serif;text-indent:0;text-align:start;text-decoration:none;text-decoration-line:none;text-decoration-style:solid;text-decoration-color:#000000;letter-spacing:normal;word-spacing:normal;text-transform:none;direction:ltr;block-progression:tb;writing-mode:lr-tb;baseline-shift:baseline;text-anchor:start;white-space:normal;clip-rule:nonzero;display:inline;overflow:visible;visibility:visible;opacity:1;isolation:auto;mix-blend-mode:normal;color-interpolation:sRGB;color-interpolation-filters:linearRGB;solid-color:#000000;solid-opacity:1;fill:#ffff00;fill-opacity:1;fill-rule:evenodd;stroke:none;stroke-width:30;stroke-linecap:round;stroke-linejoin:round;stroke-miterlimit:4;stroke-dasharray:none;stroke-dashoffset:0;stroke-opacity:1;color-rendering:auto;image-rendering:auto;shape-rendering:auto;text-rendering:auto;enable-background:accumulate"
       d="m 87.597656,51.966797 c -2.152468,-8e-6 -4.219479,0.571262 -6.017578,1.609375 -1.798095,1.038111 -3.328071,2.542177 -4.404297,4.40625 -2.152542,3.728124 -2.152473,8.305012 0,12.033203 l 8.90625,15.425781 20.572269,0 c 1.49444,-1.35e-4 2.86207,-0.789625 3.60937,-2.083984 0.74735,-1.29446 0.74759,-2.871373 0,-4.166016 l 0,-0.002 L 98.017578,57.982375 C 95.865096,54.254138 91.902617,51.966725 87.597656,51.96675 Z"
       id="path4556"
       inkscape:connector-curvature="0" />
  </g>
</svg>
